{"accessors":[{"bufferView":0,"componentType":5126,"count":24,"max":[0.23999999463558197,0.32499998807907104,0.14000000059604645],"min":[-0.23999999463558197,-0.32499998807907104,-0.14000000059604645],"normalized":false,"type":"VEC3"},{"bufferView":1,"componentType":5126,"count":24,"max":[1.0,0.0,1.0,1.0],"min":[-1.0,-1.5259254723787308e-05,-1.0,1.0],"normalized":false,"type":"VEC4"},{"bufferView":2,"componentType":5126,"count":24,"max":[1.0,1.0,1.0],"min":[-1.0,-1.0,-1.0],"normalized":false,"type":"VEC3"},{"bufferView":3,"componentType":5126,"count":24,"max":[1.0,1.0],"min":[0.0,0.0],"normalized":false,"type":"VEC2"},{"bufferView":4,"componentType":5121,"count":36,"max":[23],"min":[0],"normalized":false,"type":"SCALAR"},{"bufferView":5,"componentType":5126,"count":2210,"max":[0.2197508066892624,0.2199999988079071,0.2197508066892624],"min":[-0.2197508066892624,-0.2199999988079071,-0.2197508066892624],"normalized":false,"type":"VEC3"},{"bufferView":6,"componentType":5126,"count":2210,"max":[1.0,0.0,1.0,1.0],"min":[-1.0,-2.157951530534774e-05,-1.0,1.0],"normalized":false,"type":"VEC4"},{"bufferView":7,"componentType":5126,"count":2210,"max":[0.9988680481910706,1.0,0.9988680481910706],"min":[-0.9988688230514526,-1.0,-0.9988672137260437],"normalized":false,"type":"VEC3"},{"bufferView":8,"componentType":5126,"count":2210,"max":[1.0,1.0],"min":[0.0,0.0],"normalized":false,"type":"VEC2"},{"bufferView":9,"componentType":5123,"count":12672,"max":[2209],"min":[0],"normalized":false,"type":"SCALAR"},{"bufferView":10,"componentType":5126,"count":1950,"max":[0.06499999761581421,0.17499999701976776,0.06499999761581421],"min":[-0.06499999761581421,-0.17499999701976776,-0.06499999761581421],"normalized":false,"type":"VEC3"},{"bufferView":11,"componentType":5126,"count":1950,"max":[1.0,0.0,1.0,1.0],"min":[-1.0,-2.157951530534774e-05,-1.0,1.0],"normalized":false,"type":"VEC4"},{"bufferView":12,"componentType":5126,"count":1950,"max":[1.0,1.0,1.0],"min":[-1.0,-1.0,-1.0],"normalized":false,"type":"VEC3"},{"bufferView":13,"componentType":5126,"count":1950,"max":[1.0,1.0],"min":[0.0,0.0],"normalized":false,"type":"VEC2"},{"bufferView":14,"componentType":5123,"count":10368,"max":[1949],"min":[0],"normalized":false,"type":"SCALAR"},{"bufferView":15,"componentType":5126,"count":2210,"max":[1.0987540483474731,1.100000023841858,1.0987540483474731],"min":[-1.0987540483474731,-1.100000023841858,-1.0987540483474731],"normalized":false,"type":"VEC3"},{"bufferView":16,"componentType":5126,"count":3,"max":[0.3499999940395355],"min":[0.0],"normalized":false,"type":"SCALAR"},{"bufferView":17,"componentType":5126,"count":3,"max":[0.7071067690849304,0.0,0.0,1.0],"min":[-0.7071067690849304,0.0,0.0,0.7071067690849304],"normalized":false,"type":"VEC4"},{"bufferView":18,"componentType":5126,"count":3,"max":[0.0,0.0,0.0,1.0],"min":[-0.7071067690849304,0.0,0.0,0.7071067690849304],"normalized":false,"type":"VEC4"},{"bufferView":19,"componentType":5126,"count":1,"max":[0.0],"min":[0.0],"normalized":false,"type":"SCALAR"},{"bufferView":20,"componentType":5126,"count":1,"max":[0.3420201241970062,0.0,0.0,0.9396926164627075],"min":[0.3420201241970062,0.0,0.0,0.9396926164627075],"normalized":false,"type":"VEC4"},{"bufferView":21,"componentType":5126,"count":1,"max":[0.0,-0.15000000596046448,0.0],"min":[0.0,-0.15000000596046448,0.0],"normalized":false,"type":"VEC3"},{"bufferView":22,"componentType":5126,"count":2,"max":[0.4000000059604645],"min":[0.0],"normalized":false,"type":"SCALAR"},{"bufferView":23,"componentType":5126,"count":2,"max":[0.0,0.0,0.0,1.0],"min":[-0.3826834559440613,0.0,0.0,0.9238795042037964],"normalized":false,"type":"VEC4"},{"bufferView":24,"componentType":5126,"count":1,"max":[0.0,0.05000000074505806,0.0],"min":[0.0,0.05000000074505806,0.0],"normalized":false,"type":"VEC3"},{"bufferView":25,"componentType":5126,"count":3,"max":[1.0],"min":[0.0],"normalized":false,"type":"SCALAR"},{"bufferView":26,"componentType":5126,"count":3,"max":[-0.12532895803451538,0.14305903017520905,0.10767672955989838,0.9857231378555298],"min":[-0.16030418872833252,0.09309690445661545,0.06305128335952759,0.9706918001174927],"normalized":false,"type":"VEC4"},{"bufferView":27,"componentType":5126,"count":3,"max":[0.18070992827415466,-0.08181951195001602,-0.023100081831216812,0.9874675273895264],"min":[0.13296596705913544,-0.1162206381559372,-0.04549857974052429,0.9755852818489075],"normalized":false,"type":"VEC4"},{"bufferView":28,"componentType":5126,"count":3,"max":[-0.3312968313694,0.24794259667396545,-0.18851834535598755,0.8922823667526245],"min":[-0.3858892321586609,0.24194097518920898,-0.19322535395622253,0.867339551448822],"normalized":false,"type":"VEC4"},{"bufferView":29,"componentType":5126,"count":3,"max":[-0.7205026745796204,0.2067861258983612,0.214837908744812,0.6588743329048157],"min":[-0.7608184218406677,0.1515548825263977,0.15424564480781555,0.5764021277427673],"normalized":false,"type":"VEC4"},{"bufferView":30,"componentType":5126,"count":3,"max":[0.1362338811159134,-0.3882104754447937,0.40949586033821106,0.8390445709228516],"min":[0.13261082768440247,-0.4379798471927643,0.3573669195175171,0.7886235117912292],"normalized":false,"type":"VEC4"},{"bufferView":31,"componentType":5126,"count":3,"max":[-0.7205026745796204,-0.1515548825263977,-0.15424564480781555,0.6588743329048157],"min":[-0.7608184218406677,-0.2067861258983612,-0.214837908744812,0.5764021277427673],"normalized":false,"type":"VEC4"},{"bufferView":32,"componentType":5126,"count":1,"max":[-0.9396926164627075,0.0,0.0,0.3420201539993286],"min":[-0.9396926164627075,0.0,0.0,0.3420201539993286],"normalized":false,"type":"VEC4"},{"bufferView":33,"componentType":5126,"count":1,"max":[0.0,-0.30000001192092896,0.0],"min":[0.0,-0.30000001192092896,0.0],"normalized":false,"type":"VEC3"},{"bufferView":34,"componentType":5126,"count":1,"max":[0.0,0.7071067690849304,0.0,0.7071067690849304],"min":[0.0,0.7071067690849304,0.0,0.7071067690849304],"normalized":false,"type":"VEC4"},{"bufferView":35,"componentType":5126,"count":1,"max":[0.0,0.0,0.0,1.0],"min":[0.0,0.0,0.0,1.0],"normalized":false,"type":"VEC4"},{"bufferView":36,"componentType":5126,"count":1,"max":[0.0,0.5199999809265137,0.0],"min":[0.0,0.5199999809265137,0.0],"normalized":false,"type":"VEC3"},{"bufferView":37,"componentType":5126,"count":2,"max":[0.0,0.0,0.0,1.0],"min":[-8.742277657347586e-08,0.0,0.0,-1.0],"normalized":false,"type":"VEC4"},{"bufferView":38,"componentType":5126,"count":1,"max":[0.30070579051971436,0.0,0.0,0.9537169337272644],"min":[0.30070579051971436,0.0,0.0,0.9537169337272644],"normalized":false,"type":"VEC4"},{"bufferView":39,"componentType":5126,"count":1,"max":[-0.5735764503479004,0.0,0.0,0.8191520571708679],"min":[-0.5735764503479004,0.0,0.0,0.8191520571708679],"normalized":false,"type":"VEC4"},{"bufferView":40,"componentType":5126,"count":1,"max":[-0.2164396196603775,0.0,0.0,0.9762960076332092],"min":[-0.2164396196603775,0.0,0.0,0.9762960076332092],"normalized":false,"type":"VEC4"},{"bufferView":41,"componentType":5126,"count":1,"max":[-0.6532814502716064,0.27059805393218994,0.27059805393218994,0.6532814502716064],"min":[-0.6532814502716064,0.27059805393218994,0.27059805393218994,0.6532814502716064],"normalized":false,"type":"VEC4"},{"bufferView":42,"componentType":5126,"count":1,"max":[-0.7071067690849304,0.0,0.0,0.7071067690849304],"min":[-0.7071067690849304,0.0,0.0,0.7071067690849304],"normalized":false,"type":"VEC4"},{"bufferView":43,"componentType":5126,"count":2,"max":[0.30000001192092896],"min":[0.0],"normalized":false,"type":"SCALAR"},{"bufferView":44,"componentType":5126,"count":2,"max":[0.0,0.05000000074505806,0.0],"min":[0.0,0.0,-0.4000000059604645],"normalized":false,"type":"VEC3"},{"bufferView":45,"componentType":5126,"count":1,"max":[0.0,-0.25,0.0],"min":[0.0,-0.25,0.0],"normalized":false,"type":"VEC3"},{"bufferView":46,"componentType":5126,"count":3,"max":[0.6000000238418579],"min":[0.0],"normalized":false,"type":"SCALAR"},{"bufferView":47,"componentType":5126,"count":3,"max":[0.08641011267900467,0.01137610711157322,0.13002951443195343,0.9876721501350403],"min":[0.08641011267900467,-0.01137610711157322,-0.13002951443195343,0.9876721501350403],"normalized":false,"type":"VEC4"},{"bufferView":48,"componentType":5126,"count":3,"max":[0.30070579051971436,0.0,0.0,0.9537169337272644],"min":[-0.30070579051971436,0.0,0.0,0.9537169337272644],"normalized":false,"type":"VEC4"},{"bufferView":49,"componentType":5126,"count":3,"max":[0.3826834559440613,0.0,0.0,0.9848077297210693],"min":[0.1736481785774231,0.0,0.0,0.9238795042037964],"normalized":false,"type":"VEC4"},{"bufferView":50,"componentType":5126,"count":3,"max":[0.30070579051971436,0.0,0.0,0.9537169337272644],"min":[-0.30070579051971436,0.0,0.0,0.9537169337272644],"normalized":false,"type":"VEC4"},{"bufferView":51,"componentType":5126,"count":3,"max":[0.3826834559440613,0.0,0.0,0.9848077297210693],"min":[0.1736481785774231,0.0,0.0,0.9238795042037964],"normalized":false,"type":"VEC4"}],"animations":[{"channels":[{"sampler":0,"target":{"node":10,"path":"rotation"}},{"sampler":1,"target":{"node":11,"path":"rotation"}}],"name":"Attack2","samplers":[{"input":16,"interpolation":"LINEAR","output":17},{"input":16,"interpolation":"LINEAR","output":18}]},{"channels":[{"sampler":0,"target":{"node":8,"path":"rotation"}}],"name":"Fall2","samplers":[{"input":19,"interpolation":"LINEAR","output":20}]},{"channels":[{"sampler":0,"target":{"node":6,"path":"translation"}}],"name":"FastFall","samplers":[{"input":19,"interpolation":"LINEAR","output":21}]},{"channels":[{"sampler":0,"target":{"node":6,"path":"rotation"}}],"name":"Hit2","samplers":[{"input":22,"interpolation":"LINEAR","output":23}]},{"channels":[{"sampler":0,"target":{"node":6,"path":"translation"}},{"sampler":1,"target":{"node":6,"path":"rotation"}},{"sampler":2,"target":{"node":7,"path":"rotation"}},{"sampler":3,"target":{"node":8,"path":"rotation"}},{"sampler":4,"target":{"node":9,"path":"rotation"}},{"sampler":5,"target":{"node":10,"path":"rotation"}},{"sampler":6,"target":{"node":11,"path":"rotation"}}],"name":"Idle2","samplers":[{"input":19,"interpolation":"LINEAR","output":24},{"input":25,"interpolation":"LINEAR","output":26},{"input":25,"interpolation":"LINEAR","output":27},{"input":25,"interpolation":"LINEAR","output":28},{"input":25,"interpolation":"LINEAR","output":29},{"input":25,"interpolation":"LINEAR","output":30},{"input":25,"interpolation":"LINEAR","output":31}]},{"channels":[{"sampler":0,"target":{"node":8,"path":"rotation"}}],"name":"Jump2","samplers":[{"input":19,"interpolation":"LINEAR","output":32}]},{"channels":[{"sampler":0,"target":{"node":6,"path":"translation"}}],"name":"JumpSquat","samplers":[{"input":19,"interpolation":"LINEAR","output":33}]},{"channels":[{"sampler":0,"target":{"node":6,"path":"rotation"}}],"name":"Pivot","samplers":[{"input":19,"interpolation":"LINEAR","output":34}]},{"channels":[{"sampler":0,"target":{"node":6,"path":"translation"}},{"sampler":1,"target":{"node":6,"path":"rotation"}},{"sampler":2,"target":{"node":7,"path":"translation"}},{"sampler":3,"target":{"node":7,"path":"rotation"}},{"sampler":4,"target":{"node":8,"path":"rotation"}},{"sampler":5,"target":{"node":9,"path":"rotation"}},{"sampler":6,"target":{"node":10,"path":"rotation"}},{"sampler":7,"target":{"node":11,"path":"rotation"}},{"sampler":8,"target":{"node":12,"path":"rotation"}},{"sampler":9,"target":{"node":13,"path":"rotation"}},{"sampler":10,"target":{"node":14,"path":"rotation"}},{"sampler":11,"target":{"node":15,"path":"rotation"}}],"name":"RESET","samplers":[{"input":19,"interpolation":"LINEAR","output":24},{"input":19,"interpolation":"LINEAR","output":35},{"input":19,"interpolation":"LINEAR","output":36},{"input":19,"interpolation":"LINEAR","output":35},{"input":19,"interpolation":"LINEAR","output":35},{"input":19,"interpolation":"LINEAR","output":35},{"input":19,"interpolation":"LINEAR","output":35},{"input":19,"interpolation":"LINEAR","output":35},{"input":19,"interpolation":"LINEAR","output":35},{"input":19,"interpolation":"LINEAR","output":35},{"input":19,"interpolation":"LINEAR","output":35},{"input":19,"interpolation":"LINEAR","output":35}]},{"channels":[{"sampler":0,"target":{"node":6,"path":"rotation"}}],"name":"Roll","samplers":[{"input":22,"interpolation":"LINEAR","output":37}]},{"channels":[{"sampler":0,"target":{"node":6,"path":"rotation"}},{"sampler":1,"target":{"node":8,"path":"rotation"}},{"sampler":2,"target":{"node":10,"path":"rotation"}}],"name":"Run2","samplers":[{"input":19,"interpolation":"LINEAR","output":38},{"input":19,"interpolation":"LINEAR","output":39},{"input":19,"interpolation":"LINEAR","output":39}]},{"channels":[{"sampler":0,"target":{"node":6,"path":"rotation"}}],"name":"RunBrake","samplers":[{"input":19,"interpolation":"LINEAR","output":40}]},{"channels":[{"sampler":0,"target":{"node":8,"path":"rotation"}},{"sampler":1,"target":{"node":9,"path":"rotation"}}],"name":"Shield2","samplers":[{"input":19,"interpolation":"LINEAR","output":41},{"input":19,"interpolation":"LINEAR","output":42}]},{"channels":[{"sampler":0,"target":{"node":6,"path":"translation"}}],"name":"Spotdodge","samplers":[{"input":43,"interpolation":"LINEAR","output":44}]},{"channels":[{"sampler":0,"target":{"node":6,"path":"translation"}}],"name":"Squat","samplers":[{"input":19,"interpolation":"LINEAR","output":45}]},{"channels":[{"sampler":0,"target":{"node":6,"path":"rotation"}},{"sampler":1,"target":{"node":12,"path":"rotation"}},{"sampler":2,"target":{"node":13,"path":"rotation"}},{"sampler":3,"target":{"node":14,"path":"rotation"}},{"sampler":4,"target":{"node":15,"path":"rotation"}}],"name":"Walk","samplers":[{"input":46,"interpolation":"LINEAR","output":47},{"input":46,"interpolation":"LINEAR","output":48},{"input":46,"interpolation":"LINEAR","output":49},{"input":46,"interpolation":"LINEAR","output":50},{"input":46,"interpolation":"LINEAR","output":51}]}],"asset":{"generator":"Godot Engine v4.7.1.stable.official@a13da4feb8d8aefc283c3763d33a2f170a18d541","version":"2.0"},"bufferViews":[{"buffer":0,"byteLength":288,"byteStride":12,"target":34962},{"buffer":0,"byteLength":384,"byteOffset":288,"byteStride":16,"target":34962},{"buffer":0,"byteLength":288,"byteOffset":672,"byteStride":12,"target":34962},{"buffer":0,"byteLength":192,"byteOffset":960,"byteStride":8,"target":34962},{"buffer":0,"byteLength":36,"byteOffset":1152,"target":34963},{"buffer":0,"byteLength":26520,"byteOffset":1188,"byteStride":12,"target":34962},{"buffer":0,"byteLength":35360,"byteOffset":27708,"byteStride":16,"target":34962},{"buffer":0,"byteLength":26520,"byteOffset":63068,"byteStride":12,"target":34962},{"buffer":0,"byteLength":17680,"byteOffset":89588,"byteStride":8,"target":34962},{"buffer":0,"byteLength":25344,"byteOffset":107268,"target":34963},{"buffer":0,"byteLength":23400,"byteOffset":132612,"byteStride":12,"target":34962},{"buffer":0,"byteLength":31200,"byteOffset":156012,"byteStride":16,"target":34962},{"buffer":0,"byteLength":23400,"byteOffset":187212,"byteStride":12,"target":34962},{"buffer":0,"byteLength":15600,"byteOffset":210612,"byteStride":8,"target":34962},{"buffer":0,"byteLength":20736,"byteOffset":226212,"target":34963},{"buffer":0,"byteLength":26520,"byteOffset":246948,"byteStride":12,"target":34962},{"buffer":0,"byteLength":12,"byteOffset":273468},{"buffer":0,"byteLength":48,"byteOffset":273480},{"buffer":0,"byteLength":48,"byteOffset":273528},{"buffer":0,"byteLength":4,"byteOffset":273576},{"buffer":0,"byteLength":16,"byteOffset":273580},{"buffer":0,"byteLength":12,"byteOffset":273596},{"buffer":0,"byteLength":8,"byteOffset":273608},{"buffer":0,"byteLength":32,"byteOffset":273616},{"buffer":0,"byteLength":12,"byteOffset":273648},{"buffer":0,"byteLength":12,"byteOffset":273660},{"buffer":0,"byteLength":48,"byteOffset":273672},{"buffer":0,"byteLength":48,"byteOffset":273720},{"buffer":0,"byteLength":48,"byteOffset":273768},{"buffer":0,"byteLength":48,"byteOffset":273816},{"buffer":0,"byteLength":48,"byteOffset":273864},{"buffer":0,"byteLength":48,"byteOffset":273912},{"buffer":0,"byteLength":16,"byteOffset":273960},{"buffer":0,"byteLength":12,"byteOffset":273976},{"buffer":0,"byteLength":16,"byteOffset":273988},{"buffer":0,"byteLength":16,"byteOffset":274004},{"buffer":0,"byteLength":12,"byteOffset":274020},{"buffer":0,"byteLength":32,"byteOffset":274032},{"buffer":0,"byteLength":16,"byteOffset":274064},{"buffer":0,"byteLength":16,"byteOffset":274080},{"buffer":0,"byteLength":16,"byteOffset":274096},{"buffer":0,"byteLength":16,"byteOffset":274112},{"buffer":0,"byteLength":16,"byteOffset":274128},{"buffer":0,"byteLength":8,"byteOffset":274144},{"buffer":0,"byteLength":24,"byteOffset":274152},{"buffer":0,"byteLength":12,"byteOffset":274176},{"buffer":0,"byteLength":12,"byteOffset":274188},{"buffer":0,"byteLength":48,"byteOffset":274200},{"buffer":0,"byteLength":48,"byteOffset":274248},{"buffer":0,"byteLength":48,"byteOffset":274296},{"buffer":0,"byteLength":48,"byteOffset":274344},{"buffer":0,"byteLength":48,"byteOffset":274392}],"buffers":[{"byteLength":274440,"uri":"character0.bin"}],"extensions":{"OMI_physics_shape":{"shapes":[{"capsule":{"height":1.7999999523162842,"radius":0.5},"type":"capsule"},{"box":{"size":[1.2000000476837158,1.2000000476837158,1.2000000476837158]},"type":"box"},{"capsule":{"height":1.850000023841858,"radius":0.550000011920929},"type":"capsule"}]}},"extensionsRequired":["KHR_node_visibility"],"extensionsUsed":["GODOT_single_root","KHR_node_visibility","OMI_physics_body","OMI_physics_shape"],"materials":[{"pbrMetallicRoughness":{"baseColorFactor":[0.03310476243495941,0.3185468316078186,1.0,1.0],"metallicFactor":0.0,"roughnessFactor":1.0}},{"alphaMode":"BLEND","pbrMetallicRoughness":{"baseColorFactor":[0.010022823698818684,0.6038272976875305,1.0,0.44999998807907104],"metallicFactor":0.0,"roughnessFactor":1.0}}],"meshes":[{"primitives":[{"attributes":{"NORMAL":2,"POSITION":0,"TANGENT":1,"TEXCOORD_0":3},"indices":4,"material":0,"mode":4}]},{"primitives":[{"attributes":{"NORMAL":7,"POSITION":5,"TANGENT":6,"TEXCOORD_0":8},"indices":9,"material":0,"mode":4}]},{"primitives":[{"attributes":{"NORMAL":12,"POSITION":10,"TANGENT":11,"TEXCOORD_0":13},"indices":14,"material":0,"mode":4}]},{"primitives":[{"attributes":{"NORMAL":12,"POSITION":10,"TANGENT":11,"TEXCOORD_0":13},"indices":14,"material":0,"mode":4}]},{"primitives":[{"attributes":{"NORMAL":12,"POSITION":10,"TANGENT":11,"TEXCOORD_0":13},"indices":14,"material":0,"mode":4}]},{"primitives":[{"attributes":{"NORMAL":12,"POSITION":10,"TANGENT":11,"TEXCOORD_0":13},"indices":14,"material":0,"mode":4}]},{"primitives":[{"attributes":{"NORMAL":12,"POSITION":10,"TANGENT":11,"TEXCOORD_0":13},"indices":14,"material":0,"mode":4}]},{"primitives":[{"attributes":{"NORMAL":12,"POSITION":10,"TANGENT":11,"TEXCOORD_0":13},"indices":14,"material":0,"mode":4}]},{"primitives":[{"attributes":{"NORMAL":12,"POSITION":10,"TANGENT":11,"TEXCOORD_0":13},"indices":14,"material":0,"mode":4}]},{"primitives":[{"attributes":{"NORMAL":12,"POSITION":10,"TANGENT":11,"TEXCOORD_0":13},"indices":14,"material":0,"mode":4}]},{"primitives":[{"attributes":{"NORMAL":7,"POSITION":15,"TANGENT":6,"TEXCOORD_0":8},"indices":9,"material":1,"mode":4}]},{"primitives":[{"attributes":{"NORMAL":2,"POSITION":0,"TANGENT":1,"TEXCOORD_0":3},"indices":4,"mode":4}]}],"nodes":[{"children":[1,2,3,4,5,17,18,20,22,23],"extensions":{"OMI_physics_body":{"motion":{"type":"kinematic"}}},"name":"Character"},{"name":"Controller"},{"name":"Stats"},{"name":"AttackController"},{"extensions":{"OMI_physics_body":{"collider":{"shape":0}}},"name":"CollisionShape3D"},{"children":[6,12,14,16],"name":"Humanoid"},{"children":[7,8,10],"mesh":0,"name":"TorsoMesh","translation":[0.0,0.05000000074505806,0.0]},{"mesh":1,"name":"HeadMesh","translation":[0.0,0.5199999809265137,0.0]},{"children":[9],"mesh":2,"name":"LeftUpperArm","translation":[-0.3100000023841858,0.15000000596046448,0.0]},{"mesh":3,"name":"LeftForearm","translation":[0.0,-0.2800000011920929,0.0]},{"children":[11],"mesh":4,"name":"RightUpperArm","translation":[0.3100000023841858,0.15000000596046448,0.0]},{"mesh":5,"name":"RightForearm","translation":[0.0,-0.2800000011920929,0.0]},{"children":[13],"mesh":6,"name":"LeftUpperLeg","translation":[-0.1599999964237213,-0.3799999952316284,0.0]},{"mesh":7,"name":"LeftLowerLeg","translation":[0.0,-0.2800000011920929,0.0]},{"children":[15],"mesh":8,"name":"RightUpperLeg","translation":[0.1599999964237213,-0.3799999952316284,0.0]},{"mesh":9,"name":"RightLowerLeg","translation":[0.0,-0.2800000011920929,0.0]},{"extensions":{"KHR_node_visibility":{"visible":false}},"mesh":10,"name":"ShieldMesh"},{"extensions":{"KHR_node_visibility":{"visible":false}},"mesh":11,"name":"MeshInstance3D"},{"children":[19],"extensions":{"OMI_physics_body":{"trigger":{"nodes":[19.0]}}},"name":"Hitbox"},{"extensions":{"OMI_physics_body":{"trigger":null}},"name":"CollisionShape3D2","translation":[0.800000011920929,0.0,0.0]},{"children":[21],"extensions":{"OMI_physics_body":{"trigger":{"nodes":[21.0]}}},"name":"Hurtbox"},{"extensions":{"OMI_physics_body":{"trigger":null}},"name":"CollisionShape3D3"},{"name":"AnimationController"},{"children":[24,25,26,27,28,29,30,31],"name":"StateMachine"},{"name":"Idle"},{"name":"Run"},{"name":"Jump"},{"name":"Fall"},{"name":"Attack"},{"name":"Hit"},{"name":"Death"},{"name":"Shield"}],"scene":0,"scenes":[{"nodes":[0]}]}