# John Placeholder - Perfect T-Pose
v -0.240000 -0.275000 -0.140000
v 0.240000 -0.275000 -0.140000
v 0.240000 0.375000 -0.140000
v -0.240000 0.375000 -0.140000
v -0.240000 -0.275000 0.140000
v 0.240000 -0.275000 0.140000
v 0.240000 0.375000 0.140000
v -0.240000 0.375000 0.140000
v 0.000000 0.800000 0.000000
v 0.000000 0.800000 0.000000
v 0.000000 0.800000 0.000000
v 0.000000 0.800000 0.000000
v 0.000000 0.800000 0.000000
v 0.000000 0.800000 0.000000
v 0.000000 0.800000 0.000000
v 0.000000 0.800000 0.000000
v 0.000000 0.800000 0.000000
v 0.000000 0.800000 0.000000
v 0.000000 0.800000 0.000000
v 0.000000 0.800000 0.000000
v 0.056940 0.792504 0.000000
v 0.049312 0.792504 0.028470
v 0.028470 0.792504 0.049312
v 0.000000 0.792504 0.056940
v -0.028470 0.792504 0.049312
v -0.049312 0.792504 0.028470
v -0.056940 0.792504 0.000000
v -0.049312 0.792504 -0.028470
v -0.028470 0.792504 -0.049312
v -0.000000 0.792504 -0.056940
v 0.028470 0.792504 -0.049312
v 0.049312 0.792504 -0.028470
v 0.110000 0.770526 0.000000
v 0.095263 0.770526 0.055000
v 0.055000 0.770526 0.095263
v 0.000000 0.770526 0.110000
v -0.055000 0.770526 0.095263
v -0.095263 0.770526 0.055000
v -0.110000 0.770526 0.000000
v -0.095263 0.770526 -0.055000
v -0.055000 0.770526 -0.095263
v -0.000000 0.770526 -0.110000
v 0.055000 0.770526 -0.095263
v 0.095263 0.770526 -0.055000
v 0.155563 0.735563 0.000000
v 0.134722 0.735563 0.077782
v 0.077782 0.735563 0.134722
v 0.000000 0.735563 0.155563
v -0.077782 0.735563 0.134722
v -0.134722 0.735563 0.077782
v -0.155563 0.735563 0.000000
v -0.134722 0.735563 -0.077782
v -0.077782 0.735563 -0.134722
v -0.000000 0.735563 -0.155563
v 0.077782 0.735563 -0.134722
v 0.134722 0.735563 -0.077782
v 0.190526 0.690000 0.000000
v 0.165000 0.690000 0.095263
v 0.095263 0.690000 0.165000
v 0.000000 0.690000 0.190526
v -0.095263 0.690000 0.165000
v -0.165000 0.690000 0.095263
v -0.190526 0.690000 0.000000
v -0.165000 0.690000 -0.095263
v -0.095263 0.690000 -0.165000
v -0.000000 0.690000 -0.190526
v 0.095263 0.690000 -0.165000
v 0.165000 0.690000 -0.095263
v 0.212504 0.636940 0.000000
v 0.184034 0.636940 0.106252
v 0.106252 0.636940 0.184034
v 0.000000 0.636940 0.212504
v -0.106252 0.636940 0.184034
v -0.184034 0.636940 0.106252
v -0.212504 0.636940 0.000000
v -0.184034 0.636940 -0.106252
v -0.106252 0.636940 -0.184034
v -0.000000 0.636940 -0.212504
v 0.106252 0.636940 -0.184034
v 0.184034 0.636940 -0.106252
v 0.220000 0.580000 0.000000
v 0.190526 0.580000 0.110000
v 0.110000 0.580000 0.190526
v 0.000000 0.580000 0.220000
v -0.110000 0.580000 0.190526
v -0.190526 0.580000 0.110000
v -0.220000 0.580000 0.000000
v -0.190526 0.580000 -0.110000
v -0.110000 0.580000 -0.190526
v -0.000000 0.580000 -0.220000
v 0.110000 0.580000 -0.190526
v 0.190526 0.580000 -0.110000
v 0.212504 0.523060 0.000000
v 0.184034 0.523060 0.106252
v 0.106252 0.523060 0.184034
v 0.000000 0.523060 0.212504
v -0.106252 0.523060 0.184034
v -0.184034 0.523060 0.106252
v -0.212504 0.523060 0.000000
v -0.184034 0.523060 -0.106252
v -0.106252 0.523060 -0.184034
v -0.000000 0.523060 -0.212504
v 0.106252 0.523060 -0.184034
v 0.184034 0.523060 -0.106252
v 0.190526 0.470000 0.000000
v 0.165000 0.470000 0.095263
v 0.095263 0.470000 0.165000
v 0.000000 0.470000 0.190526
v -0.095263 0.470000 0.165000
v -0.165000 0.470000 0.095263
v -0.190526 0.470000 0.000000
v -0.165000 0.470000 -0.095263
v -0.095263 0.470000 -0.165000
v -0.000000 0.470000 -0.190526
v 0.095263 0.470000 -0.165000
v 0.165000 0.470000 -0.095263
v 0.155563 0.424437 0.000000
v 0.134722 0.424437 0.077782
v 0.077782 0.424437 0.134722
v 0.000000 0.424437 0.155563
v -0.077782 0.424437 0.134722
v -0.134722 0.424437 0.077782
v -0.155563 0.424437 0.000000
v -0.134722 0.424437 -0.077782
v -0.077782 0.424437 -0.134722
v -0.000000 0.424437 -0.155563
v 0.077782 0.424437 -0.134722
v 0.134722 0.424437 -0.077782
v 0.110000 0.389474 0.000000
v 0.095263 0.389474 0.055000
v 0.055000 0.389474 0.095263
v 0.000000 0.389474 0.110000
v -0.055000 0.389474 0.095263
v -0.095263 0.389474 0.055000
v -0.110000 0.389474 0.000000
v -0.095263 0.389474 -0.055000
v -0.055000 0.389474 -0.095263
v -0.000000 0.389474 -0.110000
v 0.055000 0.389474 -0.095263
v 0.095263 0.389474 -0.055000
v 0.056940 0.367496 0.000000
v 0.049312 0.367496 0.028470
v 0.028470 0.367496 0.049312
v 0.000000 0.367496 0.056940
v -0.028470 0.367496 0.049312
v -0.049312 0.367496 0.028470
v -0.056940 0.367496 0.000000
v -0.049312 0.367496 -0.028470
v -0.028470 0.367496 -0.049312
v -0.000000 0.367496 -0.056940
v 0.028470 0.367496 -0.049312
v 0.049312 0.367496 -0.028470
v 0.000000 0.360000 0.000000
v 0.000000 0.360000 0.000000
v 0.000000 0.360000 0.000000
v 0.000000 0.360000 0.000000
v -0.000000 0.360000 0.000000
v -0.000000 0.360000 0.000000
v -0.000000 0.360000 0.000000
v -0.000000 0.360000 -0.000000
v -0.000000 0.360000 -0.000000
v -0.000000 0.360000 -0.000000
v 0.000000 0.360000 -0.000000
v 0.000000 0.360000 -0.000000
v -0.500000 0.290000 0.000000
v -0.500000 0.280622 0.035000
v -0.500000 0.255000 0.060622
v -0.500000 0.220000 0.070000
v -0.500000 0.185000 0.060622
v -0.500000 0.159378 0.035000
v -0.500000 0.150000 0.000000
v -0.500000 0.159378 -0.035000
v -0.500000 0.185000 -0.060622
v -0.500000 0.220000 -0.070000
v -0.500000 0.255000 -0.060622
v -0.500000 0.280622 -0.035000
v -0.200000 0.290000 0.000000
v -0.200000 0.280622 0.035000
v -0.200000 0.255000 0.060622
v -0.200000 0.220000 0.070000
v -0.200000 0.185000 0.060622
v -0.200000 0.159378 0.035000
v -0.200000 0.150000 0.000000
v -0.200000 0.159378 -0.035000
v -0.200000 0.185000 -0.060622
v -0.200000 0.220000 -0.070000
v -0.200000 0.255000 -0.060622
v -0.200000 0.280622 -0.035000
v 0.200000 0.290000 0.000000
v 0.200000 0.280622 0.035000
v 0.200000 0.255000 0.060622
v 0.200000 0.220000 0.070000
v 0.200000 0.185000 0.060622
v 0.200000 0.159378 0.035000
v 0.200000 0.150000 0.000000
v 0.200000 0.159378 -0.035000
v 0.200000 0.185000 -0.060622
v 0.200000 0.220000 -0.070000
v 0.200000 0.255000 -0.060622
v 0.200000 0.280622 -0.035000
v 0.500000 0.290000 0.000000
v 0.500000 0.280622 0.035000
v 0.500000 0.255000 0.060622
v 0.500000 0.220000 0.070000
v 0.500000 0.185000 0.060622
v 0.500000 0.159378 0.035000
v 0.500000 0.150000 0.000000
v 0.500000 0.159378 -0.035000
v 0.500000 0.185000 -0.060622
v 0.500000 0.220000 -0.070000
v 0.500000 0.255000 -0.060622
v 0.500000 0.280622 -0.035000
v -0.770000 0.280000 0.000000
v -0.770000 0.271962 0.030000
v -0.770000 0.250000 0.051962
v -0.770000 0.220000 0.060000
v -0.770000 0.190000 0.051962
v -0.770000 0.168038 0.030000
v -0.770000 0.160000 0.000000
v -0.770000 0.168038 -0.030000
v -0.770000 0.190000 -0.051962
v -0.770000 0.220000 -0.060000
v -0.770000 0.250000 -0.051962
v -0.770000 0.271962 -0.030000
v -0.470000 0.280000 0.000000
v -0.470000 0.271962 0.030000
v -0.470000 0.250000 0.051962
v -0.470000 0.220000 0.060000
v -0.470000 0.190000 0.051962
v -0.470000 0.168038 0.030000
v -0.470000 0.160000 0.000000
v -0.470000 0.168038 -0.030000
v -0.470000 0.190000 -0.051962
v -0.470000 0.220000 -0.060000
v -0.470000 0.250000 -0.051962
v -0.470000 0.271962 -0.030000
v 0.470000 0.280000 0.000000
v 0.470000 0.271962 0.030000
v 0.470000 0.250000 0.051962
v 0.470000 0.220000 0.060000
v 0.470000 0.190000 0.051962
v 0.470000 0.168038 0.030000
v 0.470000 0.160000 0.000000
v 0.470000 0.168038 -0.030000
v 0.470000 0.190000 -0.051962
v 0.470000 0.220000 -0.060000
v 0.470000 0.250000 -0.051962
v 0.470000 0.271962 -0.030000
v 0.770000 0.280000 0.000000
v 0.770000 0.271962 0.030000
v 0.770000 0.250000 0.051962
v 0.770000 0.220000 0.060000
v 0.770000 0.190000 0.051962
v 0.770000 0.168038 0.030000
v 0.770000 0.160000 0.000000
v 0.770000 0.168038 -0.030000
v 0.770000 0.190000 -0.051962
v 0.770000 0.220000 -0.060000
v 0.770000 0.250000 -0.051962
v 0.770000 0.271962 -0.030000
v -0.085000 -0.610000 0.000000
v -0.095048 -0.610000 0.037500
v -0.122500 -0.610000 0.064952
v -0.160000 -0.610000 0.075000
v -0.197500 -0.610000 0.064952
v -0.224952 -0.610000 0.037500
v -0.235000 -0.610000 0.000000
v -0.224952 -0.610000 -0.037500
v -0.197500 -0.610000 -0.064952
v -0.160000 -0.610000 -0.075000
v -0.122500 -0.610000 -0.064952
v -0.095048 -0.610000 -0.037500
v -0.085000 -0.230000 0.000000
v -0.095048 -0.230000 0.037500
v -0.122500 -0.230000 0.064952
v -0.160000 -0.230000 0.075000
v -0.197500 -0.230000 0.064952
v -0.224952 -0.230000 0.037500
v -0.235000 -0.230000 0.000000
v -0.224952 -0.230000 -0.037500
v -0.197500 -0.230000 -0.064952
v -0.160000 -0.230000 -0.075000
v -0.122500 -0.230000 -0.064952
v -0.095048 -0.230000 -0.037500
v 0.235000 -0.610000 0.000000
v 0.224952 -0.610000 0.037500
v 0.197500 -0.610000 0.064952
v 0.160000 -0.610000 0.075000
v 0.122500 -0.610000 0.064952
v 0.095048 -0.610000 0.037500
v 0.085000 -0.610000 0.000000
v 0.095048 -0.610000 -0.037500
v 0.122500 -0.610000 -0.064952
v 0.160000 -0.610000 -0.075000
v 0.197500 -0.610000 -0.064952
v 0.224952 -0.610000 -0.037500
v 0.235000 -0.230000 0.000000
v 0.224952 -0.230000 0.037500
v 0.197500 -0.230000 0.064952
v 0.160000 -0.230000 0.075000
v 0.122500 -0.230000 0.064952
v 0.095048 -0.230000 0.037500
v 0.085000 -0.230000 0.000000
v 0.095048 -0.230000 -0.037500
v 0.122500 -0.230000 -0.064952
v 0.160000 -0.230000 -0.075000
v 0.197500 -0.230000 -0.064952
v 0.224952 -0.230000 -0.037500
f 1 2 3 4
f 5 8 7 6
f 1 5 6 2
f 2 6 7 3
f 3 7 8 4
f 4 8 5 1
f 9 10 22 21
f 10 11 23 22
f 11 12 24 23
f 12 13 25 24
f 13 14 26 25
f 14 15 27 26
f 15 16 28 27
f 16 17 29 28
f 17 18 30 29
f 18 19 31 30
f 19 20 32 31
f 20 9 21 32
f 21 22 34 33
f 22 23 35 34
f 23 24 36 35
f 24 25 37 36
f 25 26 38 37
f 26 27 39 38
f 27 28 40 39
f 28 29 41 40
f 29 30 42 41
f 30 31 43 42
f 31 32 44 43
f 32 21 33 44
f 33 34 46 45
f 34 35 47 46
f 35 36 48 47
f 36 37 49 48
f 37 38 50 49
f 38 39 51 50
f 39 40 52 51
f 40 41 53 52
f 41 42 54 53
f 42 43 55 54
f 43 44 56 55
f 44 33 45 56
f 45 46 58 57
f 46 47 59 58
f 47 48 60 59
f 48 49 61 60
f 49 50 62 61
f 50 51 63 62
f 51 52 64 63
f 52 53 65 64
f 53 54 66 65
f 54 55 67 66
f 55 56 68 67
f 56 45 57 68
f 57 58 70 69
f 58 59 71 70
f 59 60 72 71
f 60 61 73 72
f 61 62 74 73
f 62 63 75 74
f 63 64 76 75
f 64 65 77 76
f 65 66 78 77
f 66 67 79 78
f 67 68 80 79
f 68 57 69 80
f 69 70 82 81
f 70 71 83 82
f 71 72 84 83
f 72 73 85 84
f 73 74 86 85
f 74 75 87 86
f 75 76 88 87
f 76 77 89 88
f 77 78 90 89
f 78 79 91 90
f 79 80 92 91
f 80 69 81 92
f 81 82 94 93
f 82 83 95 94
f 83 84 96 95
f 84 85 97 96
f 85 86 98 97
f 86 87 99 98
f 87 88 100 99
f 88 89 101 100
f 89 90 102 101
f 90 91 103 102
f 91 92 104 103
f 92 81 93 104
f 93 94 106 105
f 94 95 107 106
f 95 96 108 107
f 96 97 109 108
f 97 98 110 109
f 98 99 111 110
f 99 100 112 111
f 100 101 113 112
f 101 102 114 113
f 102 103 115 114
f 103 104 116 115
f 104 93 105 116
f 105 106 118 117
f 106 107 119 118
f 107 108 120 119
f 108 109 121 120
f 109 110 122 121
f 110 111 123 122
f 111 112 124 123
f 112 113 125 124
f 113 114 126 125
f 114 115 127 126
f 115 116 128 127
f 116 105 117 128
f 117 118 130 129
f 118 119 131 130
f 119 120 132 131
f 120 121 133 132
f 121 122 134 133
f 122 123 135 134
f 123 124 136 135
f 124 125 137 136
f 125 126 138 137
f 126 127 139 138
f 127 128 140 139
f 128 117 129 140
f 129 130 142 141
f 130 131 143 142
f 131 132 144 143
f 132 133 145 144
f 133 134 146 145
f 134 135 147 146
f 135 136 148 147
f 136 137 149 148
f 137 138 150 149
f 138 139 151 150
f 139 140 152 151
f 140 129 141 152
f 141 142 154 153
f 142 143 155 154
f 143 144 156 155
f 144 145 157 156
f 145 146 158 157
f 146 147 159 158
f 147 148 160 159
f 148 149 161 160
f 149 150 162 161
f 150 151 163 162
f 151 152 164 163
f 152 141 153 164
f 165 166 178 177
f 166 167 179 178
f 167 168 180 179
f 168 169 181 180
f 169 170 182 181
f 170 171 183 182
f 171 172 184 183
f 172 173 185 184
f 173 174 186 185
f 174 175 187 186
f 175 176 188 187
f 176 165 177 188
f 189 190 202 201
f 190 191 203 202
f 191 192 204 203
f 192 193 205 204
f 193 194 206 205
f 194 195 207 206
f 195 196 208 207
f 196 197 209 208
f 197 198 210 209
f 198 199 211 210
f 199 200 212 211
f 200 189 201 212
f 213 214 226 225
f 214 215 227 226
f 215 216 228 227
f 216 217 229 228
f 217 218 230 229
f 218 219 231 230
f 219 220 232 231
f 220 221 233 232
f 221 222 234 233
f 222 223 235 234
f 223 224 236 235
f 224 213 225 236
f 237 238 250 249
f 238 239 251 250
f 239 240 252 251
f 240 241 253 252
f 241 242 254 253
f 242 243 255 254
f 243 244 256 255
f 244 245 257 256
f 245 246 258 257
f 246 247 259 258
f 247 248 260 259
f 248 237 249 260
f 261 262 274 273
f 262 263 275 274
f 263 264 276 275
f 264 265 277 276
f 265 266 278 277
f 266 267 279 278
f 267 268 280 279
f 268 269 281 280
f 269 270 282 281
f 270 271 283 282
f 271 272 284 283
f 272 261 273 284
f 285 286 298 297
f 286 287 299 298
f 287 288 300 299
f 288 289 301 300
f 289 290 302 301
f 290 291 303 302
f 291 292 304 303
f 292 293 305 304
f 293 294 306 305
f 294 295 307 306
f 295 296 308 307
f 296 285 297 308
