{"accessors":[{"bufferView":0,"componentType":5126,"count":24,"max":[0.23999999463558197,0.32499998807907104,0.14000000059604645],"min":[-0.23999999463558197,-0.32499998807907104,-0.14000000059604645],"normalized":false,"type":"VEC3"},{"bufferView":1,"componentType":5126,"count":24,"max":[1.0,0.0,1.0,1.0],"min":[-1.0,-1.5259254723787308e-05,-1.0,1.0],"normalized":false,"type":"VEC4"},{"bufferView":2,"componentType":5126,"count":24,"max":[1.0,1.0,1.0],"min":[-1.0,-1.0,-1.0],"normalized":false,"type":"VEC3"},{"bufferView":3,"componentType":5126,"count":24,"max":[1.0,1.0],"min":[0.0,0.0],"normalized":false,"type":"VEC2"},{"bufferView":4,"componentType":5121,"count":36,"max":[23],"min":[0],"normalized":false,"type":"SCALAR"},{"bufferView":5,"componentType":5126,"count":2210,"max":[0.2197508066892624,0.2199999988079071,0.2197508066892624],"min":[-0.2197508066892624,-0.2199999988079071,-0.2197508066892624],"normalized":false,"type":"VEC3"},{"bufferView":6,"componentType":5126,"count":2210,"max":[1.0,0.0,1.0,1.0],"min":[-1.0,-2.157951530534774e-05,-1.0,1.0],"normalized":false,"type":"VEC4"},{"bufferView":7,"componentType":5126,"count":2210,"max":[0.9988680481910706,1.0,0.9988680481910706],"min":[-0.9988688230514526,-1.0,-0.9988672137260437],"normalized":false,"type":"VEC3"},{"bufferView":8,"componentType":5126,"count":2210,"max":[1.0,1.0],"min":[0.0,0.0],"normalized":false,"type":"VEC2"},{"bufferView":9,"componentType":5123,"count":12672,"max":[2209],"min":[0],"normalized":false,"type":"SCALAR"},{"bufferView":10,"componentType":5126,"count":1950,"max":[0.06499999761581421,0.17499999701976776,0.06499999761581421],"min":[-0.06499999761581421,-0.17499999701976776,-0.06499999761581421],"normalized":false,"type":"VEC3"},{"bufferView":11,"componentType":5126,"count":1950,"max":[1.0,0.0,1.0,1.0],"min":[-1.0,-2.157951530534774e-05,-1.0,1.0],"normalized":false,"type":"VEC4"},{"bufferView":12,"componentType":5126,"count":1950,"max":[1.0,1.0,1.0],"min":[-1.0,-1.0,-1.0],"normalized":false,"type":"VEC3"},{"bufferView":13,"componentType":5126,"count":1950,"max":[1.0,1.0],"min":[0.0,0.0],"normalized":false,"type":"VEC2"},{"bufferView":14,"componentType":5123,"count":10368,"max":[1949],"min":[0],"normalized":false,"type":"SCALAR"},{"bufferView":15,"componentType":5126,"count":2210,"max":[1.0987540483474731,1.100000023841858,1.0987540483474731],"min":[-1.0987540483474731,-1.100000023841858,-1.0987540483474731],"normalized":false,"type":"VEC3"}],"asset":{"generator":"Godot Engine v4.7.1.stable.official@a13da4feb8d8aefc283c3763d33a2f170a18d541","version":"2.0"},"bufferViews":[{"buffer":0,"byteLength":288,"byteStride":12,"target":34962},{"buffer":0,"byteLength":384,"byteOffset":288,"byteStride":16,"target":34962},{"buffer":0,"byteLength":288,"byteOffset":672,"byteStride":12,"target":34962},{"buffer":0,"byteLength":192,"byteOffset":960,"byteStride":8,"target":34962},{"buffer":0,"byteLength":36,"byteOffset":1152,"target":34963},{"buffer":0,"byteLength":26520,"byteOffset":1188,"byteStride":12,"target":34962},{"buffer":0,"byteLength":35360,"byteOffset":27708,"byteStride":16,"target":34962},{"buffer":0,"byteLength":26520,"byteOffset":63068,"byteStride":12,"target":34962},{"buffer":0,"byteLength":17680,"byteOffset":89588,"byteStride":8,"target":34962},{"buffer":0,"byteLength":25344,"byteOffset":107268,"target":34963},{"buffer":0,"byteLength":23400,"byteOffset":132612,"byteStride":12,"target":34962},{"buffer":0,"byteLength":31200,"byteOffset":156012,"byteStride":16,"target":34962},{"buffer":0,"byteLength":23400,"byteOffset":187212,"byteStride":12,"target":34962},{"buffer":0,"byteLength":15600,"byteOffset":210612,"byteStride":8,"target":34962},{"buffer":0,"byteLength":20736,"byteOffset":226212,"target":34963},{"buffer":0,"byteLength":26520,"byteOffset":246948,"byteStride":12,"target":34962}],"buffers":[{"byteLength":273468,"uri":"john placeholder0.bin"}],"extensionsRequired":["KHR_node_visibility"],"extensionsUsed":["GODOT_single_root","KHR_node_visibility"],"materials":[{"pbrMetallicRoughness":{"baseColorFactor":[0.03310476243495941,0.3185468316078186,1.0,1.0],"metallicFactor":0.0,"roughnessFactor":1.0}},{"alphaMode":"BLEND","pbrMetallicRoughness":{"baseColorFactor":[0.010022823698818684,0.6038272976875305,1.0,0.44999998807907104],"metallicFactor":0.0,"roughnessFactor":1.0}}],"meshes":[{"primitives":[{"attributes":{"NORMAL":2,"POSITION":0,"TANGENT":1,"TEXCOORD_0":3},"indices":4,"material":0,"mode":4}]},{"primitives":[{"attributes":{"NORMAL":7,"POSITION":5,"TANGENT":6,"TEXCOORD_0":8},"indices":9,"material":0,"mode":4}]},{"primitives":[{"attributes":{"NORMAL":12,"POSITION":10,"TANGENT":11,"TEXCOORD_0":13},"indices":14,"material":0,"mode":4}]},{"primitives":[{"attributes":{"NORMAL":12,"POSITION":10,"TANGENT":11,"TEXCOORD_0":13},"indices":14,"material":0,"mode":4}]},{"primitives":[{"attributes":{"NORMAL":12,"POSITION":10,"TANGENT":11,"TEXCOORD_0":13},"indices":14,"material":0,"mode":4}]},{"primitives":[{"attributes":{"NORMAL":12,"POSITION":10,"TANGENT":11,"TEXCOORD_0":13},"indices":14,"material":0,"mode":4}]},{"primitives":[{"attributes":{"NORMAL":12,"POSITION":10,"TANGENT":11,"TEXCOORD_0":13},"indices":14,"material":0,"mode":4}]},{"primitives":[{"attributes":{"NORMAL":12,"POSITION":10,"TANGENT":11,"TEXCOORD_0":13},"indices":14,"material":0,"mode":4}]},{"primitives":[{"attributes":{"NORMAL":12,"POSITION":10,"TANGENT":11,"TEXCOORD_0":13},"indices":14,"material":0,"mode":4}]},{"primitives":[{"attributes":{"NORMAL":12,"POSITION":10,"TANGENT":11,"TEXCOORD_0":13},"indices":14,"material":0,"mode":4}]},{"primitives":[{"attributes":{"NORMAL":7,"POSITION":15,"TANGENT":6,"TEXCOORD_0":8},"indices":9,"material":1,"mode":4}]}],"nodes":[{"children":[1,7,9,11],"name":"Humanoid"},{"children":[2,3,5],"mesh":0,"name":"TorsoMesh","translation":[0.0,0.05000000074505806,0.0]},{"mesh":1,"name":"HeadMesh","translation":[0.0,0.5199999809265137,0.0]},{"children":[4],"mesh":2,"name":"LeftUpperArm","translation":[-0.3100000023841858,0.15000000596046448,0.0]},{"mesh":3,"name":"LeftForearm","translation":[0.0,-0.2800000011920929,0.0]},{"children":[6],"mesh":4,"name":"RightUpperArm","translation":[0.3100000023841858,0.15000000596046448,0.0]},{"mesh":5,"name":"RightForearm","translation":[0.0,-0.2800000011920929,0.0]},{"children":[8],"mesh":6,"name":"LeftUpperLeg","translation":[-0.1599999964237213,-0.3799999952316284,0.0]},{"mesh":7,"name":"LeftLowerLeg","translation":[0.0,-0.2800000011920929,0.0]},{"children":[10],"mesh":8,"name":"RightUpperLeg","translation":[0.1599999964237213,-0.3799999952316284,0.0]},{"mesh":9,"name":"RightLowerLeg","translation":[0.0,-0.2800000011920929,0.0]},{"extensions":{"KHR_node_visibility":{"visible":false}},"mesh":10,"name":"ShieldMesh"}],"scene":0,"scenes":[{"nodes":[0]}]}